<mxfile host="app.diagrams.net" modified="2024-05-24T16:35:09.827Z" agent="Mozilla/5.0 (Windows NT 10.0; Win64; x64) AppleWebKit/537.36 (KHTML, like Gecko) Chrome/125.0.0.0 Safari/537.36" etag="gh2V58N9j4ZQBkNMTDXi" version="24.4.8" type="device">
  <diagram name="Page-1" id="ZSZmgNhU9nOJoryi1aqg">
    <mxGraphModel dx="866" dy="486" grid="1" gridSize="10" guides="1" tooltips="1" connect="1" arrows="1" fold="1" page="1" pageScale="1" pageWidth="827" pageHeight="1169" math="0" shadow="0">
      <root>
        <mxCell id="0" />
        <mxCell id="1" parent="0" />
        <mxCell id="INkDduoj81UkgjcefhKB-1" value="&lt;div&gt;&lt;font style=&quot;font-size: 16px;&quot;&gt;patient&lt;/font&gt;&lt;/div&gt;" style="rounded=0;whiteSpace=wrap;html=1;" parent="1" vertex="1">
          <mxGeometry x="212.75" y="660" width="90.5" height="40" as="geometry" />
        </mxCell>
        <mxCell id="INkDduoj81UkgjcefhKB-2" value="&lt;div&gt;&lt;font style=&quot;font-size: 16px;&quot;&gt;agent&lt;/font&gt;&lt;/div&gt;" style="rounded=0;whiteSpace=wrap;html=1;" parent="1" vertex="1">
          <mxGeometry x="212.75" y="410" width="90.5" height="40" as="geometry" />
        </mxCell>
        <mxCell id="INkDduoj81UkgjcefhKB-3" value="&lt;font style=&quot;font-size: 16px;&quot;&gt;ดูแล&lt;/font&gt;" style="rhombus;whiteSpace=wrap;html=1;" parent="1" vertex="1">
          <mxGeometry x="218" y="515" width="80" height="60" as="geometry" />
        </mxCell>
        <mxCell id="INkDduoj81UkgjcefhKB-4" value="&lt;div&gt;&lt;font style=&quot;font-size: 16px;&quot;&gt;equipment&lt;/font&gt;&lt;/div&gt;" style="rounded=0;whiteSpace=wrap;html=1;" parent="1" vertex="1">
          <mxGeometry x="485.5" y="410" width="90.5" height="40" as="geometry" />
        </mxCell>
        <mxCell id="INkDduoj81UkgjcefhKB-6" value="" style="rhombus;whiteSpace=wrap;html=1;" parent="1" vertex="1">
          <mxGeometry x="351" y="400" width="97" height="60" as="geometry" />
        </mxCell>
        <mxCell id="INkDduoj81UkgjcefhKB-8" value="" style="endArrow=none;html=1;rounded=0;exitX=1;exitY=0.5;exitDx=0;exitDy=0;endFill=0;entryX=0;entryY=0.5;entryDx=0;entryDy=0;" parent="1" source="INkDduoj81UkgjcefhKB-2" target="INkDduoj81UkgjcefhKB-6" edge="1">
          <mxGeometry width="50" height="50" relative="1" as="geometry">
            <mxPoint x="568" y="440" as="sourcePoint" />
            <mxPoint x="340" y="430" as="targetPoint" />
          </mxGeometry>
        </mxCell>
        <mxCell id="INkDduoj81UkgjcefhKB-10" value="" style="endArrow=none;html=1;rounded=0;exitX=1;exitY=0.5;exitDx=0;exitDy=0;entryX=0;entryY=0.5;entryDx=0;entryDy=0;" parent="1" source="INkDduoj81UkgjcefhKB-6" target="INkDduoj81UkgjcefhKB-4" edge="1">
          <mxGeometry width="50" height="50" relative="1" as="geometry">
            <mxPoint x="498" y="440" as="sourcePoint" />
            <mxPoint x="548" y="390" as="targetPoint" />
          </mxGeometry>
        </mxCell>
        <mxCell id="INkDduoj81UkgjcefhKB-11" value="&lt;font style=&quot;font-size: 16px;&quot;&gt;มี/เป็น&lt;/font&gt;" style="rhombus;whiteSpace=wrap;html=1;" parent="1" vertex="1">
          <mxGeometry x="604" y="400" width="80" height="60" as="geometry" />
        </mxCell>
        <mxCell id="INkDduoj81UkgjcefhKB-12" value="&lt;font style=&quot;font-size: 16px;&quot;&gt;Type&lt;/font&gt;" style="rounded=0;whiteSpace=wrap;html=1;" parent="1" vertex="1">
          <mxGeometry x="719" y="410" width="90.5" height="40" as="geometry" />
        </mxCell>
        <mxCell id="INkDduoj81UkgjcefhKB-13" value="" style="endArrow=none;html=1;rounded=0;exitX=1;exitY=0.5;exitDx=0;exitDy=0;entryX=0;entryY=0.5;entryDx=0;entryDy=0;" parent="1" source="INkDduoj81UkgjcefhKB-4" target="INkDduoj81UkgjcefhKB-11" edge="1">
          <mxGeometry width="50" height="50" relative="1" as="geometry">
            <mxPoint x="868" y="510" as="sourcePoint" />
            <mxPoint x="918" y="460" as="targetPoint" />
          </mxGeometry>
        </mxCell>
        <mxCell id="INkDduoj81UkgjcefhKB-14" value="&lt;font style=&quot;font-size: 16px;&quot;&gt;Status&lt;/font&gt;" style="rounded=0;whiteSpace=wrap;html=1;" parent="1" vertex="1">
          <mxGeometry x="592.75" y="600" width="90.5" height="40" as="geometry" />
        </mxCell>
        <mxCell id="INkDduoj81UkgjcefhKB-15" value="&lt;div&gt;&lt;font style=&quot;font-size: 16px;&quot;&gt;history&lt;/font&gt;&lt;/div&gt;" style="rounded=0;whiteSpace=wrap;html=1;" parent="1" vertex="1">
          <mxGeometry x="622.01" y="680" width="90.5" height="40" as="geometry" />
        </mxCell>
        <mxCell id="INkDduoj81UkgjcefhKB-16" value="" style="endArrow=none;html=1;rounded=0;exitX=0.5;exitY=1;exitDx=0;exitDy=0;" parent="1" source="INkDduoj81UkgjcefhKB-2" target="INkDduoj81UkgjcefhKB-3" edge="1">
          <mxGeometry width="50" height="50" relative="1" as="geometry">
            <mxPoint x="438" y="560" as="sourcePoint" />
            <mxPoint x="488" y="510" as="targetPoint" />
          </mxGeometry>
        </mxCell>
        <mxCell id="INkDduoj81UkgjcefhKB-17" value="" style="endArrow=none;html=1;rounded=0;exitX=0.5;exitY=1;exitDx=0;exitDy=0;entryX=0.5;entryY=0;entryDx=0;entryDy=0;" parent="1" source="INkDduoj81UkgjcefhKB-3" target="INkDduoj81UkgjcefhKB-1" edge="1">
          <mxGeometry width="50" height="50" relative="1" as="geometry">
            <mxPoint x="438" y="515" as="sourcePoint" />
            <mxPoint x="488" y="465" as="targetPoint" />
          </mxGeometry>
        </mxCell>
        <mxCell id="INkDduoj81UkgjcefhKB-18" value="" style="endArrow=none;html=1;rounded=0;entryX=0;entryY=0.5;entryDx=0;entryDy=0;exitX=1;exitY=0.5;exitDx=0;exitDy=0;" parent="1" source="INkDduoj81UkgjcefhKB-11" target="INkDduoj81UkgjcefhKB-12" edge="1">
          <mxGeometry width="50" height="50" relative="1" as="geometry">
            <mxPoint x="706" y="427.5" as="sourcePoint" />
            <mxPoint x="746" y="497.5" as="targetPoint" />
          </mxGeometry>
        </mxCell>
        <mxCell id="INkDduoj81UkgjcefhKB-32" value="M" style="text;html=1;align=center;verticalAlign=middle;whiteSpace=wrap;rounded=0;" parent="1" vertex="1">
          <mxGeometry x="258" y="590" width="20" height="25" as="geometry" />
        </mxCell>
        <mxCell id="INkDduoj81UkgjcefhKB-33" value="1" style="text;html=1;align=center;verticalAlign=middle;whiteSpace=wrap;rounded=0;" parent="1" vertex="1">
          <mxGeometry x="258" y="480" width="20" height="20" as="geometry" />
        </mxCell>
        <mxCell id="INkDduoj81UkgjcefhKB-34" value="M" style="text;html=1;align=center;verticalAlign=middle;whiteSpace=wrap;rounded=0;" parent="1" vertex="1">
          <mxGeometry x="312" y="430" width="20" height="20" as="geometry" />
        </mxCell>
        <mxCell id="INkDduoj81UkgjcefhKB-35" value="N" style="text;html=1;align=center;verticalAlign=middle;whiteSpace=wrap;rounded=0;" parent="1" vertex="1">
          <mxGeometry x="453" y="430" width="20" height="20" as="geometry" />
        </mxCell>
        <mxCell id="INkDduoj81UkgjcefhKB-37" value="M" style="text;html=1;align=center;verticalAlign=middle;whiteSpace=wrap;rounded=0;" parent="1" vertex="1">
          <mxGeometry x="408" y="180" width="20" height="20" as="geometry" />
        </mxCell>
        <mxCell id="INkDduoj81UkgjcefhKB-38" value="M" style="text;html=1;align=center;verticalAlign=middle;whiteSpace=wrap;rounded=0;" parent="1" vertex="1">
          <mxGeometry x="589" y="407.5" width="20" height="20" as="geometry" />
        </mxCell>
        <mxCell id="INkDduoj81UkgjcefhKB-39" value="1" style="text;html=1;align=center;verticalAlign=middle;whiteSpace=wrap;rounded=0;" parent="1" vertex="1">
          <mxGeometry x="699" y="407.5" width="20" height="20" as="geometry" />
        </mxCell>
        <mxCell id="INkDduoj81UkgjcefhKB-40" value="" style="endArrow=none;html=1;rounded=0;exitX=0.75;exitY=0;exitDx=0;exitDy=0;entryX=0;entryY=1;entryDx=0;entryDy=0;" parent="1" source="INkDduoj81UkgjcefhKB-1" target="iM88rdwvs1M7W5BvBJRj-40" edge="1">
          <mxGeometry width="50" height="50" relative="1" as="geometry">
            <mxPoint x="398" y="545" as="sourcePoint" />
            <mxPoint x="213" y="635" as="targetPoint" />
          </mxGeometry>
        </mxCell>
        <mxCell id="INkDduoj81UkgjcefhKB-41" value="" style="endArrow=none;html=1;rounded=0;exitX=0.25;exitY=0;exitDx=0;exitDy=0;entryX=0.709;entryY=0.944;entryDx=0;entryDy=0;entryPerimeter=0;" parent="1" source="INkDduoj81UkgjcefhKB-2" target="iM88rdwvs1M7W5BvBJRj-9" edge="1">
          <mxGeometry width="50" height="50" relative="1" as="geometry">
            <mxPoint x="398" y="490" as="sourcePoint" />
            <mxPoint x="187.49229421857558" y="374.2871716275024" as="targetPoint" />
          </mxGeometry>
        </mxCell>
        <mxCell id="INkDduoj81UkgjcefhKB-42" value="" style="endArrow=none;html=1;rounded=0;exitX=0.4;exitY=0;exitDx=0;exitDy=0;entryX=0.652;entryY=0.976;entryDx=0;entryDy=0;exitPerimeter=0;entryPerimeter=0;" parent="1" source="INkDduoj81UkgjcefhKB-2" target="iM88rdwvs1M7W5BvBJRj-8" edge="1">
          <mxGeometry width="50" height="50" relative="1" as="geometry">
            <mxPoint x="398" y="490" as="sourcePoint" />
            <mxPoint x="213" y="330" as="targetPoint" />
          </mxGeometry>
        </mxCell>
        <mxCell id="INkDduoj81UkgjcefhKB-43" value="" style="endArrow=none;html=1;rounded=0;exitX=0.5;exitY=1;exitDx=0;exitDy=0;entryX=0.625;entryY=0.117;entryDx=0;entryDy=0;entryPerimeter=0;" parent="1" source="iM88rdwvs1M7W5BvBJRj-16" target="INkDduoj81UkgjcefhKB-6" edge="1">
          <mxGeometry width="50" height="50" relative="1" as="geometry">
            <mxPoint x="403" y="340" as="sourcePoint" />
            <mxPoint x="358" y="440" as="targetPoint" />
          </mxGeometry>
        </mxCell>
        <mxCell id="INkDduoj81UkgjcefhKB-44" value="" style="endArrow=none;html=1;rounded=0;entryX=0.336;entryY=0.826;entryDx=0;entryDy=0;exitX=0.626;exitY=0.007;exitDx=0;exitDy=0;entryPerimeter=0;exitPerimeter=0;" parent="1" source="iM88rdwvs1M7W5BvBJRj-17" target="INkDduoj81UkgjcefhKB-6" edge="1">
          <mxGeometry width="50" height="50" relative="1" as="geometry">
            <mxPoint x="448" y="380" as="sourcePoint" />
            <mxPoint x="358" y="440" as="targetPoint" />
          </mxGeometry>
        </mxCell>
        <mxCell id="INkDduoj81UkgjcefhKB-45" value="" style="endArrow=none;html=1;rounded=0;exitX=0.75;exitY=1;exitDx=0;exitDy=0;entryX=0;entryY=0;entryDx=0;entryDy=0;" parent="1" source="INkDduoj81UkgjcefhKB-4" target="lXEj7VPOWnOvW4tIMW-n-13" edge="1">
          <mxGeometry width="50" height="50" relative="1" as="geometry">
            <mxPoint x="588" y="430" as="sourcePoint" />
            <mxPoint x="490.75" y="385.55000000000007" as="targetPoint" />
          </mxGeometry>
        </mxCell>
        <mxCell id="INkDduoj81UkgjcefhKB-46" value="" style="endArrow=none;html=1;rounded=0;exitX=0.25;exitY=0;exitDx=0;exitDy=0;entryX=0.619;entryY=0.984;entryDx=0;entryDy=0;entryPerimeter=0;" parent="1" source="INkDduoj81UkgjcefhKB-12" target="iM88rdwvs1M7W5BvBJRj-31" edge="1">
          <mxGeometry width="50" height="50" relative="1" as="geometry">
            <mxPoint x="611" y="447.5" as="sourcePoint" />
            <mxPoint x="736" y="377.5" as="targetPoint" />
          </mxGeometry>
        </mxCell>
        <mxCell id="INkDduoj81UkgjcefhKB-47" value="" style="endArrow=none;html=1;rounded=0;exitX=0.5;exitY=1;exitDx=0;exitDy=0;entryX=0.5;entryY=0;entryDx=0;entryDy=0;" parent="1" source="INkDduoj81UkgjcefhKB-12" target="iM88rdwvs1M7W5BvBJRj-32" edge="1">
          <mxGeometry width="50" height="50" relative="1" as="geometry">
            <mxPoint x="611" y="447.5" as="sourcePoint" />
            <mxPoint x="811" y="347.5" as="targetPoint" />
          </mxGeometry>
        </mxCell>
        <mxCell id="INkDduoj81UkgjcefhKB-48" value="" style="endArrow=none;html=1;rounded=0;exitX=0.25;exitY=0;exitDx=0;exitDy=0;entryX=0.676;entryY=0.967;entryDx=0;entryDy=0;entryPerimeter=0;" parent="1" source="INkDduoj81UkgjcefhKB-14" target="iM88rdwvs1M7W5BvBJRj-35" edge="1">
          <mxGeometry width="50" height="50" relative="1" as="geometry">
            <mxPoint x="464" y="490" as="sourcePoint" />
            <mxPoint x="599" y="560" as="targetPoint" />
          </mxGeometry>
        </mxCell>
        <mxCell id="INkDduoj81UkgjcefhKB-49" value="&lt;div&gt;&lt;font style=&quot;font-size: 16px;&quot;&gt;giveaway&lt;/font&gt;&lt;/div&gt;" style="rounded=0;whiteSpace=wrap;html=1;" parent="1" vertex="1">
          <mxGeometry x="509.5" y="220" width="90.5" height="40" as="geometry" />
        </mxCell>
        <mxCell id="INkDduoj81UkgjcefhKB-50" value="" style="rhombus;whiteSpace=wrap;html=1;" parent="1" vertex="1">
          <mxGeometry x="368" y="210" width="80" height="60" as="geometry" />
        </mxCell>
        <mxCell id="INkDduoj81UkgjcefhKB-51" value="" style="endArrow=none;html=1;rounded=0;entryX=0;entryY=0.5;entryDx=0;entryDy=0;exitX=1;exitY=0.5;exitDx=0;exitDy=0;" parent="1" source="INkDduoj81UkgjcefhKB-50" target="INkDduoj81UkgjcefhKB-49" edge="1">
          <mxGeometry width="50" height="50" relative="1" as="geometry">
            <mxPoint x="398" y="410" as="sourcePoint" />
            <mxPoint x="448" y="360" as="targetPoint" />
          </mxGeometry>
        </mxCell>
        <mxCell id="INkDduoj81UkgjcefhKB-52" value="" style="endArrow=none;html=1;rounded=0;exitX=0.5;exitY=0;exitDx=0;exitDy=0;entryX=0;entryY=0.5;entryDx=0;entryDy=0;edgeStyle=orthogonalEdgeStyle;" parent="1" source="INkDduoj81UkgjcefhKB-2" target="INkDduoj81UkgjcefhKB-50" edge="1">
          <mxGeometry width="50" height="50" relative="1" as="geometry">
            <mxPoint x="428" y="400" as="sourcePoint" />
            <mxPoint x="478" y="350" as="targetPoint" />
          </mxGeometry>
        </mxCell>
        <mxCell id="INkDduoj81UkgjcefhKB-55" value="M" style="text;html=1;align=center;verticalAlign=middle;whiteSpace=wrap;rounded=0;" parent="1" vertex="1">
          <mxGeometry x="338" y="220" width="20" height="20" as="geometry" />
        </mxCell>
        <mxCell id="INkDduoj81UkgjcefhKB-56" value="N" style="text;html=1;align=center;verticalAlign=middle;whiteSpace=wrap;rounded=0;" parent="1" vertex="1">
          <mxGeometry x="468" y="220" width="20" height="20" as="geometry" />
        </mxCell>
        <mxCell id="INkDduoj81UkgjcefhKB-59" value="" style="endArrow=none;html=1;rounded=0;entryX=0.309;entryY=0.944;entryDx=0;entryDy=0;entryPerimeter=0;exitX=0.75;exitY=0;exitDx=0;exitDy=0;" parent="1" source="INkDduoj81UkgjcefhKB-14" target="iM88rdwvs1M7W5BvBJRj-36" edge="1">
          <mxGeometry width="50" height="50" relative="1" as="geometry">
            <mxPoint x="674" y="600" as="sourcePoint" />
            <mxPoint x="689" y="560" as="targetPoint" />
          </mxGeometry>
        </mxCell>
        <mxCell id="INkDduoj81UkgjcefhKB-60" value="&lt;font style=&quot;font-size: 16px;&quot;&gt;borrowlist&lt;/font&gt;" style="text;html=1;align=center;verticalAlign=middle;whiteSpace=wrap;rounded=0;" parent="1" vertex="1">
          <mxGeometry x="369.5" y="415" width="60" height="30" as="geometry" />
        </mxCell>
        <mxCell id="INkDduoj81UkgjcefhKB-62" value="&lt;font style=&quot;font-size: 16px;&quot;&gt;givelist&lt;/font&gt;" style="text;html=1;align=center;verticalAlign=middle;whiteSpace=wrap;rounded=0;" parent="1" vertex="1">
          <mxGeometry x="378" y="225" width="60" height="30" as="geometry" />
        </mxCell>
        <mxCell id="INkDduoj81UkgjcefhKB-66" value="" style="endArrow=none;html=1;rounded=0;exitX=0.25;exitY=0;exitDx=0;exitDy=0;entryX=0.5;entryY=1;entryDx=0;entryDy=0;" parent="1" source="INkDduoj81UkgjcefhKB-49" target="iM88rdwvs1M7W5BvBJRj-11" edge="1">
          <mxGeometry width="50" height="50" relative="1" as="geometry">
            <mxPoint x="557" y="350" as="sourcePoint" />
            <mxPoint x="558.5" y="190" as="targetPoint" />
          </mxGeometry>
        </mxCell>
        <mxCell id="INkDduoj81UkgjcefhKB-67" value="" style="endArrow=none;html=1;rounded=0;exitX=0.75;exitY=0;exitDx=0;exitDy=0;entryX=0.247;entryY=0.942;entryDx=0;entryDy=0;entryPerimeter=0;" parent="1" source="INkDduoj81UkgjcefhKB-49" target="iM88rdwvs1M7W5BvBJRj-10" edge="1">
          <mxGeometry width="50" height="50" relative="1" as="geometry">
            <mxPoint x="590.5" y="220" as="sourcePoint" />
            <mxPoint x="660.5000000000002" y="180" as="targetPoint" />
          </mxGeometry>
        </mxCell>
        <mxCell id="INkDduoj81UkgjcefhKB-71" value="&lt;div&gt;&lt;font style=&quot;font-size: 16px;&quot;&gt;Admin&lt;/font&gt;&lt;/div&gt;" style="rounded=0;whiteSpace=wrap;html=1;" parent="1" vertex="1">
          <mxGeometry x="622.01" y="830" width="90.5" height="40" as="geometry" />
        </mxCell>
        <mxCell id="iM88rdwvs1M7W5BvBJRj-1" value="&lt;div&gt;&lt;font style=&quot;font-size: 16px;&quot;&gt;staff&lt;/font&gt;&lt;/div&gt;" style="rounded=0;whiteSpace=wrap;html=1;" parent="1" vertex="1">
          <mxGeometry x="362.75" y="110" width="90.5" height="40" as="geometry" />
        </mxCell>
        <mxCell id="iM88rdwvs1M7W5BvBJRj-2" value="" style="endArrow=none;html=1;rounded=0;exitX=0.5;exitY=0;exitDx=0;exitDy=0;entryX=0.5;entryY=1;entryDx=0;entryDy=0;" parent="1" source="INkDduoj81UkgjcefhKB-50" target="iM88rdwvs1M7W5BvBJRj-1" edge="1">
          <mxGeometry width="50" height="50" relative="1" as="geometry">
            <mxPoint x="418" y="330" as="sourcePoint" />
            <mxPoint x="468" y="280" as="targetPoint" />
          </mxGeometry>
        </mxCell>
        <mxCell id="iM88rdwvs1M7W5BvBJRj-3" value="&lt;font style=&quot;font-size: 16px;&quot;&gt;มี/เป็น&lt;/font&gt;" style="rhombus;whiteSpace=wrap;html=1;" parent="1" vertex="1">
          <mxGeometry x="490.75" y="510" width="80" height="60" as="geometry" />
        </mxCell>
        <mxCell id="iM88rdwvs1M7W5BvBJRj-4" value="" style="endArrow=none;html=1;rounded=0;exitX=0.5;exitY=1;exitDx=0;exitDy=0;entryX=0.5;entryY=0;entryDx=0;entryDy=0;" parent="1" source="INkDduoj81UkgjcefhKB-4" target="iM88rdwvs1M7W5BvBJRj-3" edge="1">
          <mxGeometry width="50" height="50" relative="1" as="geometry">
            <mxPoint x="448" y="550" as="sourcePoint" />
            <mxPoint x="498" y="500" as="targetPoint" />
          </mxGeometry>
        </mxCell>
        <mxCell id="iM88rdwvs1M7W5BvBJRj-5" value="" style="endArrow=none;html=1;rounded=0;exitX=0.5;exitY=1;exitDx=0;exitDy=0;entryX=0;entryY=0.5;entryDx=0;entryDy=0;edgeStyle=orthogonalEdgeStyle;" parent="1" source="iM88rdwvs1M7W5BvBJRj-3" target="INkDduoj81UkgjcefhKB-14" edge="1">
          <mxGeometry width="50" height="50" relative="1" as="geometry">
            <mxPoint x="488" y="580" as="sourcePoint" />
            <mxPoint x="538" y="530" as="targetPoint" />
          </mxGeometry>
        </mxCell>
        <mxCell id="iM88rdwvs1M7W5BvBJRj-6" value="M" style="text;html=1;align=center;verticalAlign=middle;whiteSpace=wrap;rounded=0;" parent="1" vertex="1">
          <mxGeometry x="529" y="490" width="20" height="20" as="geometry" />
        </mxCell>
        <mxCell id="iM88rdwvs1M7W5BvBJRj-7" value="1" style="text;html=1;align=center;verticalAlign=middle;whiteSpace=wrap;rounded=0;" parent="1" vertex="1">
          <mxGeometry x="545.75" y="600" width="20" height="20" as="geometry" />
        </mxCell>
        <mxCell id="iM88rdwvs1M7W5BvBJRj-8" value="&lt;font style=&quot;font-size: 14px;&quot;&gt;age_username&lt;/font&gt;" style="ellipse;whiteSpace=wrap;html=1;" parent="1" vertex="1">
          <mxGeometry x="150" y="310" width="104" height="30" as="geometry" />
        </mxCell>
        <mxCell id="iM88rdwvs1M7W5BvBJRj-9" value="&lt;font style=&quot;font-size: 14px;&quot;&gt;age_id&lt;/font&gt;" style="ellipse;whiteSpace=wrap;html=1;" parent="1" vertex="1">
          <mxGeometry x="170" y="361.11" width="60" height="35.56" as="geometry" />
        </mxCell>
        <mxCell id="iM88rdwvs1M7W5BvBJRj-10" value="&lt;font style=&quot;font-size: 14px;&quot;&gt;giv_amount&lt;/font&gt;" style="ellipse;whiteSpace=wrap;html=1;" parent="1" vertex="1">
          <mxGeometry x="569" y="170" width="86.5" height="30" as="geometry" />
        </mxCell>
        <mxCell id="iM88rdwvs1M7W5BvBJRj-11" value="&lt;font style=&quot;font-size: 13px;&quot;&gt;giv_id&lt;/font&gt;" style="ellipse;whiteSpace=wrap;html=1;" parent="1" vertex="1">
          <mxGeometry x="485.5" y="170" width="56" height="30" as="geometry" />
        </mxCell>
        <mxCell id="iM88rdwvs1M7W5BvBJRj-12" value="&lt;font style=&quot;font-size: 14px;&quot;&gt;giv_name&lt;/font&gt;" style="ellipse;whiteSpace=wrap;html=1;" parent="1" vertex="1">
          <mxGeometry x="517" y="140" width="72" height="30" as="geometry" />
        </mxCell>
        <mxCell id="iM88rdwvs1M7W5BvBJRj-13" value="" style="endArrow=none;html=1;rounded=0;exitX=0.5;exitY=0;exitDx=0;exitDy=0;entryX=0.5;entryY=1;entryDx=0;entryDy=0;" parent="1" source="INkDduoj81UkgjcefhKB-49" target="iM88rdwvs1M7W5BvBJRj-12" edge="1">
          <mxGeometry width="50" height="50" relative="1" as="geometry">
            <mxPoint x="629.5" y="220" as="sourcePoint" />
            <mxPoint x="652.5" y="183" as="targetPoint" />
          </mxGeometry>
        </mxCell>
        <mxCell id="iM88rdwvs1M7W5BvBJRj-14" value="&lt;font style=&quot;font-size: 14px;&quot;&gt;age_password&lt;/font&gt;" style="ellipse;whiteSpace=wrap;html=1;" parent="1" vertex="1">
          <mxGeometry x="267.25" y="350" width="97" height="34.44" as="geometry" />
        </mxCell>
        <mxCell id="iM88rdwvs1M7W5BvBJRj-15" value="" style="endArrow=none;html=1;rounded=0;exitX=0.75;exitY=0;exitDx=0;exitDy=0;entryX=0.5;entryY=1;entryDx=0;entryDy=0;" parent="1" source="INkDduoj81UkgjcefhKB-2" target="iM88rdwvs1M7W5BvBJRj-14" edge="1">
          <mxGeometry width="50" height="50" relative="1" as="geometry">
            <mxPoint x="256" y="410" as="sourcePoint" />
            <mxPoint x="227" y="339" as="targetPoint" />
          </mxGeometry>
        </mxCell>
        <mxCell id="iM88rdwvs1M7W5BvBJRj-16" value="&lt;font style=&quot;font-size: 14px;&quot;&gt;bor_auto&lt;/font&gt;" style="ellipse;whiteSpace=wrap;html=1;" parent="1" vertex="1">
          <mxGeometry x="383.75" y="354.44" width="72" height="30" as="geometry" />
        </mxCell>
        <mxCell id="iM88rdwvs1M7W5BvBJRj-17" value="&lt;font style=&quot;font-size: 14px;&quot;&gt;sta_id&lt;/font&gt;" style="ellipse;whiteSpace=wrap;html=1;" parent="1" vertex="1">
          <mxGeometry x="332" y="470" width="56" height="30" as="geometry" />
        </mxCell>
        <mxCell id="iM88rdwvs1M7W5BvBJRj-19" value="&lt;font style=&quot;font-size: 14px;&quot;&gt;stf_password&lt;/font&gt;" style="ellipse;whiteSpace=wrap;html=1;" parent="1" vertex="1">
          <mxGeometry x="435" y="70" width="91" height="30" as="geometry" />
        </mxCell>
        <mxCell id="iM88rdwvs1M7W5BvBJRj-20" value="&lt;font style=&quot;font-size: 14px;&quot;&gt;stf_id&lt;/font&gt;" style="ellipse;whiteSpace=wrap;html=1;" parent="1" vertex="1">
          <mxGeometry x="324" y="70" width="52" height="30" as="geometry" />
        </mxCell>
        <mxCell id="iM88rdwvs1M7W5BvBJRj-21" value="&lt;font style=&quot;font-size: 14px;&quot;&gt;stf_username&lt;/font&gt;" style="ellipse;whiteSpace=wrap;html=1;" parent="1" vertex="1">
          <mxGeometry x="360.25" y="40" width="95.5" height="30" as="geometry" />
        </mxCell>
        <mxCell id="iM88rdwvs1M7W5BvBJRj-22" value="" style="endArrow=none;html=1;rounded=0;exitX=0.75;exitY=0;exitDx=0;exitDy=0;entryX=0;entryY=1;entryDx=0;entryDy=0;" parent="1" source="iM88rdwvs1M7W5BvBJRj-1" target="iM88rdwvs1M7W5BvBJRj-19" edge="1">
          <mxGeometry width="50" height="50" relative="1" as="geometry">
            <mxPoint x="423" y="110" as="sourcePoint" />
            <mxPoint x="473" y="60" as="targetPoint" />
          </mxGeometry>
        </mxCell>
        <mxCell id="iM88rdwvs1M7W5BvBJRj-23" value="" style="endArrow=none;html=1;rounded=0;exitX=0.5;exitY=0;exitDx=0;exitDy=0;entryX=0.5;entryY=1;entryDx=0;entryDy=0;" parent="1" source="iM88rdwvs1M7W5BvBJRj-1" target="iM88rdwvs1M7W5BvBJRj-21" edge="1">
          <mxGeometry width="50" height="50" relative="1" as="geometry">
            <mxPoint x="448" y="120" as="sourcePoint" />
            <mxPoint x="491" y="83" as="targetPoint" />
          </mxGeometry>
        </mxCell>
        <mxCell id="iM88rdwvs1M7W5BvBJRj-24" value="" style="endArrow=none;html=1;rounded=0;exitX=0.25;exitY=0;exitDx=0;exitDy=0;entryX=1;entryY=1;entryDx=0;entryDy=0;" parent="1" source="iM88rdwvs1M7W5BvBJRj-1" target="iM88rdwvs1M7W5BvBJRj-20" edge="1">
          <mxGeometry width="50" height="50" relative="1" as="geometry">
            <mxPoint x="418" y="120" as="sourcePoint" />
            <mxPoint x="438" y="50" as="targetPoint" />
          </mxGeometry>
        </mxCell>
        <mxCell id="iM88rdwvs1M7W5BvBJRj-26" value="&lt;font style=&quot;font-size: 14px;&quot;&gt;equ_image&lt;/font&gt;" style="ellipse;whiteSpace=wrap;html=1;" parent="1" vertex="1">
          <mxGeometry x="565.75" y="360" width="72" height="40" as="geometry" />
        </mxCell>
        <mxCell id="iM88rdwvs1M7W5BvBJRj-28" value="&lt;font style=&quot;font-size: 14px;&quot;&gt;equ_name&lt;/font&gt;" style="ellipse;whiteSpace=wrap;html=1;" parent="1" vertex="1">
          <mxGeometry x="495.75" y="330" width="70" height="38.89" as="geometry" />
        </mxCell>
        <mxCell id="iM88rdwvs1M7W5BvBJRj-29" value="" style="endArrow=none;html=1;rounded=0;exitX=0.5;exitY=0;exitDx=0;exitDy=0;entryX=0.5;entryY=1;entryDx=0;entryDy=0;" parent="1" source="INkDduoj81UkgjcefhKB-4" target="iM88rdwvs1M7W5BvBJRj-28" edge="1">
          <mxGeometry width="50" height="50" relative="1" as="geometry">
            <mxPoint x="528" y="410" as="sourcePoint" />
            <mxPoint x="512" y="390" as="targetPoint" />
          </mxGeometry>
        </mxCell>
        <mxCell id="iM88rdwvs1M7W5BvBJRj-30" value="" style="endArrow=none;html=1;rounded=0;exitX=0.75;exitY=0;exitDx=0;exitDy=0;entryX=0;entryY=1;entryDx=0;entryDy=0;" parent="1" source="INkDduoj81UkgjcefhKB-4" target="iM88rdwvs1M7W5BvBJRj-26" edge="1">
          <mxGeometry width="50" height="50" relative="1" as="geometry">
            <mxPoint x="558" y="410" as="sourcePoint" />
            <mxPoint x="568" y="351" as="targetPoint" />
          </mxGeometry>
        </mxCell>
        <mxCell id="iM88rdwvs1M7W5BvBJRj-31" value="&lt;font style=&quot;font-size: 14px;&quot;&gt;typ_id&lt;/font&gt;" style="ellipse;whiteSpace=wrap;html=1;" parent="1" vertex="1">
          <mxGeometry x="697.62" y="368.89" width="55.75" height="25.56" as="geometry" />
        </mxCell>
        <mxCell id="iM88rdwvs1M7W5BvBJRj-32" value="&lt;font style=&quot;font-size: 14px;&quot;&gt;typ_comment&lt;/font&gt;" style="ellipse;whiteSpace=wrap;html=1;" parent="1" vertex="1">
          <mxGeometry x="720.5" y="480" width="88" height="30" as="geometry" />
        </mxCell>
        <mxCell id="iM88rdwvs1M7W5BvBJRj-33" value="&lt;font style=&quot;font-size: 14px;&quot;&gt;typ_name&lt;/font&gt;" style="ellipse;whiteSpace=wrap;html=1;" parent="1" vertex="1">
          <mxGeometry x="728.5" y="330" width="72" height="31.11" as="geometry" />
        </mxCell>
        <mxCell id="iM88rdwvs1M7W5BvBJRj-34" value="" style="endArrow=none;html=1;rounded=0;exitX=0.5;exitY=0;exitDx=0;exitDy=0;entryX=0.5;entryY=1;entryDx=0;entryDy=0;" parent="1" source="INkDduoj81UkgjcefhKB-12" target="iM88rdwvs1M7W5BvBJRj-33" edge="1">
          <mxGeometry width="50" height="50" relative="1" as="geometry">
            <mxPoint x="805" y="407.5" as="sourcePoint" />
            <mxPoint x="824" y="367.5" as="targetPoint" />
          </mxGeometry>
        </mxCell>
        <mxCell id="iM88rdwvs1M7W5BvBJRj-35" value="&lt;font style=&quot;font-size: 14px;&quot;&gt;sta_id&lt;/font&gt;" style="ellipse;whiteSpace=wrap;html=1;" parent="1" vertex="1">
          <mxGeometry x="569" y="555" width="52" height="25" as="geometry" />
        </mxCell>
        <mxCell id="iM88rdwvs1M7W5BvBJRj-36" value="&lt;font style=&quot;font-size: 14px;&quot;&gt;sta_comment&lt;/font&gt;" style="ellipse;whiteSpace=wrap;html=1;" parent="1" vertex="1">
          <mxGeometry x="650" y="550" width="89" height="35" as="geometry" />
        </mxCell>
        <mxCell id="iM88rdwvs1M7W5BvBJRj-37" value="&lt;font style=&quot;font-size: 14px;&quot;&gt;sta_name&lt;/font&gt;" style="ellipse;whiteSpace=wrap;html=1;" parent="1" vertex="1">
          <mxGeometry x="602" y="515" width="72" height="30" as="geometry" />
        </mxCell>
        <mxCell id="iM88rdwvs1M7W5BvBJRj-38" value="" style="endArrow=none;html=1;rounded=0;entryX=0.5;entryY=1;entryDx=0;entryDy=0;exitX=0.5;exitY=0;exitDx=0;exitDy=0;" parent="1" source="INkDduoj81UkgjcefhKB-14" target="iM88rdwvs1M7W5BvBJRj-37" edge="1">
          <mxGeometry width="50" height="50" relative="1" as="geometry">
            <mxPoint x="644" y="600" as="sourcePoint" />
            <mxPoint x="690" y="560" as="targetPoint" />
          </mxGeometry>
        </mxCell>
        <mxCell id="iM88rdwvs1M7W5BvBJRj-39" value="&lt;font style=&quot;font-size: 14px;&quot;&gt;pat_numberhn&lt;/font&gt;" style="ellipse;whiteSpace=wrap;html=1;" parent="1" vertex="1">
          <mxGeometry x="207" y="750" width="102" height="30" as="geometry" />
        </mxCell>
        <mxCell id="iM88rdwvs1M7W5BvBJRj-40" value="&lt;font style=&quot;font-size: 14px;&quot;&gt;pat_id&lt;/font&gt;" style="ellipse;whiteSpace=wrap;html=1;" parent="1" vertex="1">
          <mxGeometry x="291.5" y="610" width="48.5" height="30" as="geometry" />
        </mxCell>
        <mxCell id="iM88rdwvs1M7W5BvBJRj-41" value="&lt;font style=&quot;font-size: 14px;&quot;&gt;pat_phone&lt;/font&gt;" style="ellipse;whiteSpace=wrap;html=1;" parent="1" vertex="1">
          <mxGeometry x="284.87" y="720" width="79.38" height="30" as="geometry" />
        </mxCell>
        <mxCell id="iM88rdwvs1M7W5BvBJRj-42" value="" style="endArrow=none;html=1;rounded=0;exitX=0.5;exitY=1;exitDx=0;exitDy=0;entryX=0.5;entryY=0;entryDx=0;entryDy=0;" parent="1" source="INkDduoj81UkgjcefhKB-1" target="iM88rdwvs1M7W5BvBJRj-39" edge="1">
          <mxGeometry width="50" height="50" relative="1" as="geometry">
            <mxPoint x="238" y="675" as="sourcePoint" />
            <mxPoint x="197" y="659" as="targetPoint" />
          </mxGeometry>
        </mxCell>
        <mxCell id="iM88rdwvs1M7W5BvBJRj-43" value="" style="endArrow=none;html=1;rounded=0;exitX=0.75;exitY=1;exitDx=0;exitDy=0;entryX=0;entryY=0;entryDx=0;entryDy=0;" parent="1" source="INkDduoj81UkgjcefhKB-1" target="iM88rdwvs1M7W5BvBJRj-41" edge="1">
          <mxGeometry width="50" height="50" relative="1" as="geometry">
            <mxPoint x="253" y="675" as="sourcePoint" />
            <mxPoint x="217" y="615" as="targetPoint" />
          </mxGeometry>
        </mxCell>
        <mxCell id="iM88rdwvs1M7W5BvBJRj-44" value="&lt;font style=&quot;font-size: 14px;&quot;&gt;bor_datepickup&lt;/font&gt;" style="ellipse;whiteSpace=wrap;html=1;" parent="1" vertex="1">
          <mxGeometry x="416" y="465" width="101" height="35" as="geometry" />
        </mxCell>
        <mxCell id="iM88rdwvs1M7W5BvBJRj-45" value="" style="endArrow=none;html=1;rounded=0;exitX=0;exitY=0;exitDx=0;exitDy=0;entryX=1;entryY=1;entryDx=0;entryDy=0;" parent="1" source="iM88rdwvs1M7W5BvBJRj-44" target="INkDduoj81UkgjcefhKB-6" edge="1">
          <mxGeometry width="50" height="50" relative="1" as="geometry">
            <mxPoint x="414" y="390" as="sourcePoint" />
            <mxPoint x="398" y="417" as="targetPoint" />
          </mxGeometry>
        </mxCell>
        <mxCell id="iM88rdwvs1M7W5BvBJRj-46" value="&lt;font style=&quot;font-size: 14px;&quot;&gt;adm_auto&lt;/font&gt;" style="ellipse;whiteSpace=wrap;html=1;" parent="1" vertex="1">
          <mxGeometry x="580" y="780" width="75" height="30" as="geometry" />
        </mxCell>
        <mxCell id="iM88rdwvs1M7W5BvBJRj-47" value="&lt;font style=&quot;font-size: 14px;&quot;&gt;adm_password&lt;/font&gt;" style="ellipse;whiteSpace=wrap;html=1;" parent="1" vertex="1">
          <mxGeometry x="674" y="780" width="103" height="30" as="geometry" />
        </mxCell>
        <mxCell id="iM88rdwvs1M7W5BvBJRj-48" value="&lt;font style=&quot;font-size: 14px;&quot;&gt;adm_username&lt;/font&gt;" style="ellipse;whiteSpace=wrap;html=1;" parent="1" vertex="1">
          <mxGeometry x="612.89" y="750" width="108.75" height="30" as="geometry" />
        </mxCell>
        <mxCell id="iM88rdwvs1M7W5BvBJRj-49" value="" style="endArrow=none;html=1;rounded=0;exitX=0.25;exitY=0;exitDx=0;exitDy=0;entryX=0.681;entryY=0.976;entryDx=0;entryDy=0;entryPerimeter=0;" parent="1" source="INkDduoj81UkgjcefhKB-71" target="iM88rdwvs1M7W5BvBJRj-46" edge="1">
          <mxGeometry width="50" height="50" relative="1" as="geometry">
            <mxPoint x="470.25" y="710" as="sourcePoint" />
            <mxPoint x="520.25" y="660" as="targetPoint" />
          </mxGeometry>
        </mxCell>
        <mxCell id="iM88rdwvs1M7W5BvBJRj-50" value="" style="endArrow=none;html=1;rounded=0;exitX=0.5;exitY=0;exitDx=0;exitDy=0;entryX=0.5;entryY=1;entryDx=0;entryDy=0;" parent="1" source="INkDduoj81UkgjcefhKB-71" target="iM88rdwvs1M7W5BvBJRj-48" edge="1">
          <mxGeometry width="50" height="50" relative="1" as="geometry">
            <mxPoint x="470.25" y="710" as="sourcePoint" />
            <mxPoint x="520.25" y="660" as="targetPoint" />
          </mxGeometry>
        </mxCell>
        <mxCell id="iM88rdwvs1M7W5BvBJRj-51" value="" style="endArrow=none;html=1;rounded=0;exitX=0.75;exitY=0;exitDx=0;exitDy=0;entryX=0.306;entryY=0.969;entryDx=0;entryDy=0;entryPerimeter=0;" parent="1" source="INkDduoj81UkgjcefhKB-71" target="iM88rdwvs1M7W5BvBJRj-47" edge="1">
          <mxGeometry width="50" height="50" relative="1" as="geometry">
            <mxPoint x="470.25" y="710" as="sourcePoint" />
            <mxPoint x="520.25" y="660" as="targetPoint" />
          </mxGeometry>
        </mxCell>
        <mxCell id="iM88rdwvs1M7W5BvBJRj-52" value="&lt;font style=&quot;font-size: 14px;&quot;&gt;gli_datepickup&lt;/font&gt;" style="ellipse;whiteSpace=wrap;html=1;" parent="1" vertex="1">
          <mxGeometry x="427" y="270" width="102" height="30" as="geometry" />
        </mxCell>
        <mxCell id="iM88rdwvs1M7W5BvBJRj-53" value="&lt;font style=&quot;font-size: 14px;&quot;&gt;gli_amount&lt;/font&gt;" style="ellipse;whiteSpace=wrap;html=1;" parent="1" vertex="1">
          <mxGeometry x="312" y="270" width="72" height="30" as="geometry" />
        </mxCell>
        <mxCell id="iM88rdwvs1M7W5BvBJRj-54" value="&lt;font style=&quot;font-size: 14px;&quot;&gt;gli_id&lt;/font&gt;" style="ellipse;whiteSpace=wrap;html=1;" parent="1" vertex="1">
          <mxGeometry x="340" y="175" width="62" height="30" as="geometry" />
        </mxCell>
        <mxCell id="iM88rdwvs1M7W5BvBJRj-55" value="" style="endArrow=none;html=1;rounded=0;exitX=0;exitY=0;exitDx=0;exitDy=0;entryX=1;entryY=1;entryDx=0;entryDy=0;" parent="1" source="iM88rdwvs1M7W5BvBJRj-52" target="INkDduoj81UkgjcefhKB-50" edge="1">
          <mxGeometry width="50" height="50" relative="1" as="geometry">
            <mxPoint x="473" y="285" as="sourcePoint" />
            <mxPoint x="427" y="255" as="targetPoint" />
          </mxGeometry>
        </mxCell>
        <mxCell id="iM88rdwvs1M7W5BvBJRj-56" value="" style="endArrow=none;html=1;rounded=0;exitX=0;exitY=0;exitDx=0;exitDy=0;entryX=0.5;entryY=1;entryDx=0;entryDy=0;" parent="1" source="INkDduoj81UkgjcefhKB-50" target="iM88rdwvs1M7W5BvBJRj-54" edge="1">
          <mxGeometry width="50" height="50" relative="1" as="geometry">
            <mxPoint x="387" y="225" as="sourcePoint" />
            <mxPoint x="341" y="195" as="targetPoint" />
          </mxGeometry>
        </mxCell>
        <mxCell id="iM88rdwvs1M7W5BvBJRj-57" value="" style="endArrow=none;html=1;rounded=0;exitX=1;exitY=0;exitDx=0;exitDy=0;entryX=0;entryY=1;entryDx=0;entryDy=0;" parent="1" source="iM88rdwvs1M7W5BvBJRj-53" target="INkDduoj81UkgjcefhKB-50" edge="1">
          <mxGeometry width="50" height="50" relative="1" as="geometry">
            <mxPoint x="449" y="286" as="sourcePoint" />
            <mxPoint x="438" y="265" as="targetPoint" />
          </mxGeometry>
        </mxCell>
        <mxCell id="lXEj7VPOWnOvW4tIMW-n-1" value="&lt;div&gt;&lt;font style=&quot;font-size: 16px;&quot;&gt;staff&lt;/font&gt;&lt;/div&gt;" style="rounded=0;whiteSpace=wrap;html=1;" parent="1" vertex="1">
          <mxGeometry x="354.25" y="520" width="90.5" height="40" as="geometry" />
        </mxCell>
        <mxCell id="lXEj7VPOWnOvW4tIMW-n-8" value="" style="endArrow=none;html=1;rounded=0;exitX=0.5;exitY=0;exitDx=0;exitDy=0;entryX=0.5;entryY=1;entryDx=0;entryDy=0;" parent="1" source="lXEj7VPOWnOvW4tIMW-n-1" target="INkDduoj81UkgjcefhKB-6" edge="1">
          <mxGeometry width="50" height="50" relative="1" as="geometry">
            <mxPoint x="437" y="482" as="sourcePoint" />
            <mxPoint x="421" y="455" as="targetPoint" />
          </mxGeometry>
        </mxCell>
        <mxCell id="lXEj7VPOWnOvW4tIMW-n-11" value="&lt;font style=&quot;font-size: 16px;&quot;&gt;Location&lt;/font&gt;" style="rounded=0;whiteSpace=wrap;html=1;" parent="1" vertex="1">
          <mxGeometry x="598.75" y="277.5" width="90.5" height="40" as="geometry" />
        </mxCell>
        <mxCell id="lXEj7VPOWnOvW4tIMW-n-12" value="" style="endArrow=none;html=1;rounded=0;exitX=0.5;exitY=0;exitDx=0;exitDy=0;entryX=0.5;entryY=1;entryDx=0;entryDy=0;" parent="1" source="INkDduoj81UkgjcefhKB-11" target="lXEj7VPOWnOvW4tIMW-n-11" edge="1">
          <mxGeometry width="50" height="50" relative="1" as="geometry">
            <mxPoint x="591" y="357.5" as="sourcePoint" />
            <mxPoint x="641" y="307.5" as="targetPoint" />
          </mxGeometry>
        </mxCell>
        <mxCell id="lXEj7VPOWnOvW4tIMW-n-13" value="&lt;font style=&quot;font-size: 14px;&quot;&gt;equ_auto&lt;/font&gt;" style="ellipse;whiteSpace=wrap;html=1;" parent="1" vertex="1">
          <mxGeometry x="555" y="460" width="70" height="38.89" as="geometry" />
        </mxCell>
      </root>
    </mxGraphModel>
  </diagram>
</mxfile>
